<svg width="700" height="700" viewBox="0 0 700 700" fill="none" xmlns="http://www.w3.org/2000/svg">
<path d="M202.956 317.333H189.291L137.394 237.895V317.333H123.73V214.247H137.394L189.433 294.04V214.247H202.956V317.333ZM306.364 269.118C306.364 279.219 304.665 288.045 301.266 295.597C297.868 303.102 293.053 308.837 286.823 312.802C280.592 316.767 273.323 318.749 265.016 318.749C256.898 318.749 249.7 316.767 243.422 312.802C237.144 308.79 232.259 303.102 228.766 295.739C225.32 288.329 223.55 279.762 223.456 270.038V262.604C223.456 252.692 225.179 243.937 228.625 236.337C232.07 228.738 236.932 222.932 243.209 218.92C249.534 214.861 256.756 212.831 264.875 212.831C273.135 212.831 280.403 214.837 286.681 218.849C293.006 222.814 297.868 228.596 301.266 236.196C304.665 243.748 306.364 252.551 306.364 262.604V269.118ZM292.841 262.463C292.841 250.238 290.386 240.868 285.478 234.355C280.569 227.794 273.701 224.513 264.875 224.513C256.284 224.513 249.511 227.794 244.555 234.355C239.646 240.868 237.121 249.931 236.979 261.542V269.118C236.979 280.965 239.457 290.287 244.413 297.084C249.416 303.834 256.284 307.209 265.016 307.209C273.795 307.209 280.592 304.023 285.407 297.651C290.221 291.231 292.699 282.051 292.841 270.109V262.463ZM364.53 275.632H340.316V317.333H326.652V214.247H360.778C372.389 214.247 381.31 216.891 387.54 222.177C393.818 227.464 396.957 235.157 396.957 245.258C396.957 251.677 395.21 257.271 391.718 262.038C388.272 266.805 383.457 270.369 377.274 272.729L401.488 316.484V317.333H386.903L364.53 275.632ZM340.316 264.516H361.202C367.952 264.516 373.309 262.77 377.274 259.277C381.286 255.784 383.292 251.111 383.292 245.258C383.292 238.886 381.381 234.001 377.557 230.602C373.781 227.204 368.306 225.481 361.132 225.434H340.316V264.516ZM481.603 225.434H448.468V317.333H434.945V225.434H401.881V214.247H481.603V225.434ZM576.09 317.333H562.425V269.684H510.458V317.333H496.864V214.247H510.458V258.569H562.425V214.247H576.09V317.333ZM237.175 446.977V487.333H223.582V384.247H261.602C272.883 384.247 281.709 387.127 288.081 392.885C294.5 398.644 297.71 406.266 297.71 415.754C297.71 425.76 294.571 433.478 288.294 438.906C282.063 444.286 273.119 446.977 261.46 446.977H237.175ZM237.175 435.861H261.602C268.871 435.861 274.44 434.162 278.311 430.763C282.181 427.318 284.116 422.362 284.116 415.895C284.116 409.759 282.181 404.85 278.311 401.169C274.44 397.487 269.13 395.576 262.381 395.434H237.175V435.861ZM310.21 459.65C310.21 454.694 311.579 450.139 314.316 445.986C317.101 441.832 322.388 436.994 330.176 431.471C325.597 425.902 322.529 421.418 320.972 418.019C319.414 414.621 318.635 411.246 318.635 407.895C318.635 400.06 320.948 393.923 325.574 389.487C330.199 385.05 336.477 382.831 344.407 382.831C351.487 382.831 357.34 384.908 361.965 389.062C366.591 393.168 368.904 398.36 368.904 404.638C368.904 408.792 367.842 412.638 365.718 416.179C363.641 419.671 359.983 423.353 354.744 427.223L347.168 432.817L370.107 460.217C373.317 454.081 374.922 447.26 374.922 439.755H386.746C386.746 451.791 383.843 461.774 378.037 469.704L392.764 487.333H377.046L370.178 479.191C366.685 482.306 362.579 484.69 357.859 486.342C353.186 487.947 348.419 488.749 343.557 488.749C333.503 488.749 325.432 486.082 319.343 480.749C313.254 475.415 310.21 468.382 310.21 459.65ZM343.557 478.058C350.496 478.058 356.844 475.415 362.603 470.129L337.468 440.038L335.132 441.738C327.249 447.543 323.308 453.514 323.308 459.65C323.308 465.22 325.102 469.68 328.689 473.032C332.323 476.383 337.279 478.058 343.557 478.058ZM331.733 407.47C331.733 412.001 334.518 417.665 340.088 424.462L348.442 418.586C351.652 416.32 353.847 414.173 355.027 412.143C356.207 410.066 356.797 407.564 356.797 404.638C356.797 401.476 355.617 398.856 353.257 396.779C350.897 394.655 347.923 393.593 344.336 393.593C340.465 393.593 337.397 394.915 335.132 397.558C332.866 400.154 331.733 403.458 331.733 407.47ZM405.193 487.333V384.247H434.292C443.26 384.247 451.19 386.23 458.081 390.195C464.972 394.159 470.282 399.8 474.011 407.116C477.787 414.432 479.699 422.834 479.746 432.321V438.906C479.746 448.629 477.858 457.149 474.082 464.465C470.353 471.781 464.996 477.398 458.01 481.315C451.072 485.233 442.977 487.239 433.725 487.333H405.193ZM418.786 395.434V476.218H433.088C443.567 476.218 451.709 472.961 457.514 466.447C463.367 459.933 466.294 450.659 466.294 438.622V432.604C466.294 420.899 463.533 411.812 458.01 405.346C452.535 398.832 444.747 395.528 434.646 395.434H418.786Z" fill="white"/>
</svg>
