<svg width="700" height="700" viewBox="0 0 700 700" fill="none" xmlns="http://www.w3.org/2000/svg">
<path d="M133.997 300.333H113.924L37.6894 183.641V300.333H17.6167V148.904H37.6894L114.132 266.116V148.904H133.997V300.333ZM285.9 229.507C285.9 244.345 283.404 257.31 278.412 268.404C273.419 279.429 266.347 287.853 257.195 293.677C248.042 299.501 237.365 302.413 225.162 302.413C213.236 302.413 202.662 299.501 193.44 293.677C184.219 287.784 177.042 279.429 171.912 268.612C166.85 257.726 164.25 245.142 164.111 230.859V219.938C164.111 205.378 166.642 192.516 171.704 181.353C176.765 170.19 183.907 161.661 193.128 155.768C202.419 149.805 213.028 146.824 224.954 146.824C237.087 146.824 247.765 149.77 256.987 155.664C266.278 161.488 273.419 169.982 278.412 181.145C283.404 192.239 285.9 205.17 285.9 219.938V229.507ZM266.035 219.73C266.035 201.772 262.43 188.009 255.219 178.441C248.008 168.803 237.919 163.984 224.954 163.984C212.334 163.984 202.385 168.803 195.104 178.441C187.894 188.009 184.184 201.322 183.976 218.378V229.507C183.976 246.91 187.616 260.604 194.896 270.588C202.246 280.503 212.334 285.461 225.162 285.461C238.058 285.461 248.042 280.781 255.115 271.42C262.187 261.991 265.827 248.505 266.035 230.963V219.73ZM371.344 239.075H335.775V300.333H315.702V148.904H365.832C382.889 148.904 395.993 152.786 405.146 160.552C414.367 168.318 418.978 179.619 418.978 194.457C418.978 203.887 416.413 212.103 411.282 219.106C406.22 226.109 399.148 231.344 390.065 234.811L425.634 299.085V300.333H404.209L371.344 239.075ZM335.775 222.746H366.456C376.371 222.746 384.241 220.181 390.065 215.05C395.958 209.919 398.905 203.055 398.905 194.457C398.905 185.097 396.097 177.921 390.481 172.929C384.934 167.936 376.891 165.406 366.352 165.336H335.775V222.746ZM543.32 165.336H494.646V300.333H474.781V165.336H426.211V148.904H543.32V165.336ZM682.118 300.333H662.045V230.339H585.707V300.333H565.738V148.904H585.707V214.01H662.045V148.904H682.118V300.333ZM184.265 491.051V550.333H164.296V398.904H220.146C236.717 398.904 249.683 403.133 259.043 411.592C268.473 420.051 273.188 431.249 273.188 445.185C273.188 459.885 268.577 471.221 259.355 479.195C250.203 487.099 237.064 491.051 219.938 491.051H184.265ZM184.265 474.722H220.146C230.824 474.722 239.005 472.226 244.691 467.234C250.376 462.173 253.219 454.892 253.219 445.393C253.219 436.38 250.376 429.169 244.691 423.761C239.005 418.352 231.205 415.544 221.29 415.336H184.265V474.722ZM291.55 509.668C291.55 502.388 293.561 495.697 297.582 489.595C301.673 483.493 309.438 476.387 320.879 468.274C314.153 460.093 309.646 453.506 307.358 448.513C305.07 443.521 303.926 438.564 303.926 433.641C303.926 422.131 307.324 413.117 314.119 406.6C320.914 400.082 330.135 396.824 341.784 396.824C352.184 396.824 360.782 399.874 367.577 405.976C374.372 412.008 377.769 419.635 377.769 428.857C377.769 434.958 376.209 440.609 373.089 445.809C370.038 450.94 364.665 456.348 356.968 462.034L345.84 470.25L379.537 510.5C384.252 501.486 386.609 491.467 386.609 480.443H403.978C403.978 498.123 399.714 512.788 391.186 524.436L412.818 550.333H389.729L379.641 538.373C374.51 542.949 368.478 546.451 361.544 548.877C354.68 551.235 347.677 552.413 340.536 552.413C325.767 552.413 313.911 548.496 304.966 540.661C296.022 532.826 291.55 522.495 291.55 509.668ZM340.536 536.709C350.728 536.709 360.054 532.826 368.513 525.06L331.591 480.859L328.159 483.355C316.58 491.883 310.791 500.654 310.791 509.668C310.791 517.849 313.425 524.402 318.695 529.325C324.034 534.247 331.314 536.709 340.536 536.709ZM323.167 433.017C323.167 439.673 327.258 447.993 335.439 457.978L347.712 449.346C352.427 446.017 355.651 442.863 357.384 439.881C359.118 436.83 359.984 433.156 359.984 428.857C359.984 424.211 358.251 420.363 354.784 417.312C351.317 414.192 346.949 412.632 341.68 412.632C335.994 412.632 331.487 414.574 328.159 418.456C324.831 422.27 323.167 427.123 323.167 433.017ZM431.076 550.333V398.904H473.822C486.996 398.904 498.644 401.816 508.767 407.64C518.89 413.464 526.69 421.75 532.168 432.497C537.715 443.244 540.523 455.586 540.592 469.522V479.195C540.592 493.478 537.819 505.993 532.272 516.74C526.794 527.487 518.925 535.738 508.663 541.493C498.471 547.248 486.58 550.195 472.99 550.333H431.076ZM451.045 415.336V534.005H472.054C487.446 534.005 499.407 529.221 507.935 519.652C516.533 510.084 520.832 496.459 520.832 478.779V469.938C520.832 452.743 516.775 439.396 508.663 429.897C500.62 420.328 489.18 415.475 474.342 415.336H451.045Z" fill="white"/>
</svg>
