<svg id="Capa_1" enable-background="new 0 0 512 512" height="512" viewBox="0 0 512 512" width="512" xmlns="http://www.w3.org/2000/svg"><g><g><path d="m486.254 366.589h-460.509c-10.078 0-18.249-8.17-18.249-18.249v-288.091c0-10.078 8.17-18.249 18.249-18.249h460.509c10.078 0 18.249 8.17 18.249 18.249v288.091c0 10.079-8.17 18.249-18.249 18.249z" fill="#fedba6"/></g><g><path d="m504.502 60.245v288.095c0 10.076-8.166 18.252-18.252 18.252h-19.991c10.086 0 18.252-8.177 18.252-18.252v-288.095c0-10.075-8.166-18.242-18.252-18.242h19.991c10.085 0 18.252 8.166 18.252 18.242z" fill="#fece85"/></g><g><path d="m405.059 469.999h-298.119v-10.057c0-17.516 14.199-31.715 31.715-31.715h234.688c17.516 0 31.715 14.199 31.715 31.715v10.057z" fill="#b6c4cf"/></g><g><path d="m405.055 459.942v10.056h-21.291v-10.056c0-17.512-14.194-31.716-31.716-31.716h21.291c17.522-.001 31.716 14.203 31.716 31.716z" fill="#9facba"/></g><g><path d="m295.437 366.589h-78.874s-2.674 39.918-8.021 61.638h94.917c-5.348-21.72-8.022-61.638-8.022-61.638z" fill="#d9e7ec"/></g><g><path d="m303.459 428.225h-21.171c-5.348-21.721-8.026-61.633-8.026-61.633h21.171s2.678 39.913 8.026 61.633z" fill="#c5d3dd"/></g><g><path d="m504.503 313.345h-497.006v34.995c0 10.078 8.17 18.249 18.249 18.249h460.509c10.078 0 18.249-8.17 18.249-18.249v-34.995z" fill="#b6c4cf"/></g><g><path d="m504.502 313.345v34.995c0 10.076-8.166 18.252-18.252 18.252h-19.991c10.086 0 18.252-8.177 18.252-18.252v-34.995z" fill="#9facba"/></g><g><path d="m159.8 42.003v271.342h-152.302v-253.1c0-10.075 8.166-18.242 18.252-18.242z" fill="#dff6fd"/></g><g><path d="m139.41 42.003h20.391v271.342h-20.391z" fill="#c8effe"/></g><g><path d="m486.254 34.504h-460.509c-14.196 0-25.745 11.549-25.745 25.745v288.091c0 14.196 11.549 25.746 25.745 25.746h182.714c-.939 11.133-2.935 31.621-5.938 46.644h-63.865c-21.621 0-39.212 17.591-39.212 39.212v10.057c0 4.14 3.356 7.497 7.497 7.497h298.119c4.141 0 7.497-3.356 7.497-7.497v-10.057c0-21.621-17.591-39.212-39.213-39.212h-21.296c-4.141 0-7.497 3.356-7.497 7.497 0 4.14 3.356 7.497 7.497 7.497h21.296c13.355 0 24.219 10.864 24.219 24.219v2.56h-283.126v-2.56c0-13.354 10.864-24.219 24.219-24.219h178.311c4.141 0 7.497-3.356 7.497-7.497 0-4.14-3.356-7.497-7.497-7.497h-7.489c-3.004-15.023-4.998-35.511-5.938-46.644h182.714c14.196 0 25.746-11.55 25.746-25.746v-288.091c0-14.196-11.55-25.745-25.746-25.745zm-268.465 386.226c2.977-16.113 4.867-36.2 5.723-46.644h64.976c.856 10.445 2.746 30.532 5.723 46.644zm279.218-72.39c0 5.929-4.823 10.752-10.752 10.752h-460.51c-5.929 0-10.752-4.824-10.752-10.752v-27.498h144.807 337.206v27.498zm0-42.492h-329.71v-167.751c0-4.14-3.357-7.497-7.497-7.497s-7.497 3.356-7.497 7.497v167.752h-137.309v-245.604c0-5.925 4.825-10.745 10.755-10.745h126.554v53.948c0 4.14 3.356 7.497 7.497 7.497 4.14 0 7.497-3.356 7.497-7.497v-53.95h318.957c5.929 0 10.752 4.824 10.752 10.752v245.598z"/><path d="m39.325 84.753h11.081c4.14 0 7.497-3.356 7.497-7.497 0-4.14-3.356-7.497-7.497-7.497h-11.081c-4.14 0-7.497 3.356-7.497 7.497s3.357 7.497 7.497 7.497z"/><path d="m127.973 69.76h-52.635c-4.14 0-7.497 3.356-7.497 7.497 0 4.14 3.356 7.497 7.497 7.497h52.634c4.14 0 7.497-3.356 7.497-7.497.001-4.141-3.356-7.497-7.496-7.497z"/><path d="m71.754 117.423c0-4.14-3.356-7.497-7.497-7.497h-11.08c-4.14 0-7.497 3.356-7.497 7.497s3.356 7.497 7.497 7.497h11.081c4.14 0 7.496-3.356 7.496-7.497z"/><path d="m127.973 109.927h-38.784c-4.14 0-7.497 3.356-7.497 7.497s3.356 7.497 7.497 7.497h38.783c4.14 0 7.497-3.356 7.497-7.497s-3.356-7.497-7.496-7.497z"/><path d="m39.325 165.087h11.081c4.14 0 7.497-3.356 7.497-7.497 0-4.14-3.356-7.497-7.497-7.497h-11.081c-4.14 0-7.497 3.356-7.497 7.497s3.357 7.497 7.497 7.497z"/><path d="m127.973 150.094h-52.635c-4.14 0-7.497 3.356-7.497 7.497 0 4.14 3.356 7.497 7.497 7.497h52.634c4.14 0 7.497-3.356 7.497-7.497.001-4.141-3.356-7.497-7.496-7.497z"/><path d="m45.68 197.758c0 4.14 3.356 7.497 7.497 7.497h11.081c4.14 0 7.497-3.357 7.497-7.497s-3.356-7.497-7.497-7.497h-11.081c-4.141 0-7.497 3.356-7.497 7.497z"/><path d="m127.973 190.261h-38.784c-4.14 0-7.497 3.356-7.497 7.497 0 4.14 3.356 7.497 7.497 7.497h38.783c4.14 0 7.497-3.357 7.497-7.497.001-4.141-3.356-7.497-7.496-7.497z"/><path d="m57.903 237.924c0-4.14-3.356-7.497-7.497-7.497h-11.081c-4.14 0-7.497 3.356-7.497 7.497 0 4.14 3.356 7.497 7.497 7.497h11.081c4.141 0 7.497-3.356 7.497-7.497z"/><path d="m127.973 230.428h-52.635c-4.14 0-7.497 3.356-7.497 7.497 0 4.14 3.356 7.497 7.497 7.497h52.634c4.14 0 7.497-3.356 7.497-7.497.001-4.141-3.356-7.497-7.496-7.497z"/><path d="m64.257 270.595h-11.08c-4.14 0-7.497 3.356-7.497 7.497 0 4.14 3.356 7.497 7.497 7.497h11.081c4.14 0 7.497-3.356 7.497-7.497-.001-4.141-3.357-7.497-7.498-7.497z"/><path d="m127.973 270.595h-38.784c-4.14 0-7.497 3.356-7.497 7.497 0 4.14 3.356 7.497 7.497 7.497h38.783c4.14 0 7.497-3.356 7.497-7.497.001-4.141-3.356-7.497-7.496-7.497z"/><path d="m255.331 119.426c5.289 0 10.061-1.759 13.798-5.087.726-.647 1.417-1.359 2.056-2.118 2.664-3.17 2.255-7.898-.915-10.563-3.171-2.664-7.9-2.254-10.563.915-.176.21-.361.402-.55.569-.975.868-2.227 1.29-3.827 1.29-4.719 0-8.558-3.839-8.558-8.558s3.839-8.558 8.558-8.558c1.717 0 3.369.504 4.781 1.457 3.431 2.319 8.091 1.416 10.409-2.015 2.317-3.431 1.415-8.091-2.016-10.409-3.899-2.635-8.454-4.027-13.173-4.027-12.987 0-23.552 10.565-23.552 23.552s10.565 23.552 23.552 23.552z"/><path d="m305.4 119.426c12.987 0 23.552-10.565 23.552-23.552s-10.565-23.551-23.552-23.551-23.551 10.565-23.551 23.552 10.565 23.551 23.551 23.551zm0-32.11c4.72 0 8.559 3.839 8.559 8.558s-3.839 8.558-8.559 8.558c-4.719 0-8.558-3.839-8.558-8.558 0-4.718 3.84-8.558 8.558-8.558z"/><path d="m345.355 118.243c4.141 0 7.497-3.356 7.497-7.497v-16.667c0-.013.002-.026.002-.039 0-.777.114-7.591 4.074-7.591.692 0 1.07.101 1.069.089.011.011 1.027 1.186 1.17 6.053.019.648.009 18.154.009 18.154 0 4.14 3.356 7.497 7.497 7.497s7.497-3.356 7.497-7.497l.009-18.882c.001-5.249 2.165-5.249 3.458-5.249 1.277 0 1.719.224 1.74.206.065.083 1.072 1.459.815 7.164-.005.112-.008 16.761-.008 16.761 0 4.14 3.356 7.497 7.497 7.497s7.497-3.356 7.497-7.497v-16.26c.226-5.328-.072-12.91-4.965-18.027-3.068-3.21-7.3-4.837-12.576-4.837-4.025 0-7.56 1.093-10.438 3.055-3.367-2.602-7.306-3.221-10.27-3.221-2.42 0-4.671.455-6.731 1.266-1.307-1.107-2.995-1.778-4.842-1.778-4.141 0-7.497 3.357-7.497 7.497v32.306c0 4.14 3.356 7.497 7.496 7.497z"/><path d="m201.194 115.687c1.39 2.4 3.906 3.741 6.494 3.741 1.275 0 2.568-.326 3.751-1.011 3.582-2.075 4.805-6.662 2.729-10.245l-8.022-13.849 7.956-13.195c2.138-3.546.996-8.153-2.549-10.291-3.548-2.138-8.153-.996-10.291 2.549l-10.243 16.99c-1.411 2.341-1.437 5.264-.067 7.629z"/><path d="m466.865 150.094h-269.427c-4.14 0-7.497 3.356-7.497 7.497 0 4.14 3.356 7.497 7.497 7.497h269.427c4.141 0 7.497-3.356 7.497-7.497s-3.356-7.497-7.497-7.497z"/><path d="m466.865 190.261h-182.116c-4.141 0-7.497 3.356-7.497 7.497 0 4.14 3.356 7.497 7.497 7.497h182.116c4.141 0 7.497-3.357 7.497-7.497 0-4.141-3.356-7.497-7.497-7.497z"/><path d="m197.438 205.254h52.669c4.14 0 7.497-3.357 7.497-7.497s-3.357-7.497-7.497-7.497h-52.669c-4.14 0-7.497 3.356-7.497 7.497s3.356 7.497 7.497 7.497z"/><path d="m466.865 230.428h-36.171c-4.141 0-7.497 3.356-7.497 7.497 0 4.14 3.356 7.497 7.497 7.497h36.171c4.141 0 7.497-3.356 7.497-7.497s-3.356-7.497-7.497-7.497z"/><path d="m197.438 245.421h198.753c4.141 0 7.497-3.356 7.497-7.497 0-4.14-3.356-7.497-7.497-7.497h-198.753c-4.14 0-7.497 3.356-7.497 7.497s3.356 7.497 7.497 7.497z"/><path d="m466.865 270.595h-109.64c-4.141 0-7.497 3.356-7.497 7.497 0 4.14 3.356 7.497 7.497 7.497h109.64c4.141 0 7.497-3.356 7.497-7.497s-3.356-7.497-7.497-7.497z"/><path d="m322.782 270.595h-125.344c-4.14 0-7.497 3.356-7.497 7.497 0 4.14 3.356 7.497 7.497 7.497h125.344c4.141 0 7.497-3.356 7.497-7.497s-3.356-7.497-7.497-7.497z"/></g></g></svg>