<svg width="130" height="17" viewBox="0 0 130 17" fill="none" xmlns="http://www.w3.org/2000/svg">
<path d="M0.138672 16H4.67969C9.41602 16 12.1797 13.041 12.1797 8.5C12.1797 3.95898 9.41602 1 4.67969 1H0.138672V16ZM1.81836 14.3984V2.60156H4.66016C8.51758 2.60156 10.4805 4.75977 10.4805 8.5C10.4805 12.2402 8.51758 14.3984 4.66016 14.3984H1.81836ZM15.5098 16H17.209V1H15.5098V16ZM35.8516 8.1582H29.8457V9.75977H34.0254C33.4492 12.4941 31.0664 14.4961 28.1465 14.4961C24.8262 14.4961 22.1504 11.8398 22.1504 8.5C22.1504 5.16016 24.8262 2.50391 28.1465 2.50391C30.2656 2.50391 32.1113 3.57812 33.166 5.19922L34.6504 4.35938C33.2832 2.2207 30.8906 0.804688 28.1465 0.804688C23.8887 0.804688 20.4512 4.24219 20.4512 8.5C20.4512 12.7578 23.8887 16.1953 28.1465 16.1953C32.4238 16.1953 35.8516 12.7578 35.8516 8.48047V8.1582ZM38.8496 16H40.5488V1H38.8496V16ZM53.2441 1H43.3027V2.60156H47.4238V16H49.123V2.60156H53.2441V1ZM65.4316 16H67.1699L60.9883 1H59.4258L53.2441 16H54.9922L56.3594 12.6016H64.0645L65.4316 16ZM57.0137 11L60.2168 3.04102L63.4199 11H57.0137ZM71.584 14.3984V1H69.8848V16H77.1309V14.3984H71.584ZM94.0645 16H98.1074L94.1719 9.37891C95.5684 8.69531 96.4863 7.34766 96.4863 5.59961C96.4863 3.06055 94.9043 1 91.3301 1H85.3047V16H89.0254V9.87695H90.7832L94.0645 16ZM89.0254 4.03711H91.1055C92.4531 4.03711 92.9316 4.62305 92.9316 5.54102C92.9316 6.45898 92.4531 7.06445 91.1055 7.06445H89.0254V4.03711ZM100.188 16H103.908V1H100.188V16ZM112.414 16.1758C115.217 16.1758 117.609 14.7207 117.609 11.7617C117.609 8.90039 115.393 7.71875 113.371 6.80078C111.652 6.01953 110.578 5.63867 110.578 4.74023C110.578 4.16406 111.037 3.90039 111.691 3.90039C112.717 3.90039 114.27 4.53516 115.314 5.48242L117.17 2.73828C115.559 1.45898 113.615 0.804688 111.838 0.804688C109.133 0.804688 106.896 2.33789 106.896 5.14062C106.896 7.85547 109.035 8.91992 110.93 9.7793C112.658 10.5605 113.83 10.9414 113.83 12.0156C113.83 12.7578 113.293 13.0996 112.512 13.0996C111.271 13.0996 109.436 12.2402 108.352 11.0977L106.35 13.7832C108.01 15.3555 110.334 16.1758 112.414 16.1758ZM129.65 4.24219V1H120.207V16H129.65V12.7578H123.928V10.1016H129.016V6.89844H123.928V4.24219H129.65Z" fill="white"/>
</svg>
