<svg width="150" height="150" viewBox="0 0 150 150" fill="none" xmlns="http://www.w3.org/2000/svg">
<rect width="150" height="150" fill="white"/>
<rect x="0.5" y="0.5" width="149" height="149" fill="white" stroke="black"/>
<path d="M39.5066 67H36.2082L23.6814 47.8252V67H20.383V42.1172H23.6814L36.2424 61.3774V42.1172H39.5066V67ZM64.4671 55.3618C64.4671 57.8 64.057 59.9305 63.2366 61.7534C62.4163 63.5649 61.2542 64.9492 59.7503 65.9062C58.2464 66.8633 56.4919 67.3418 54.4866 67.3418C52.527 67.3418 50.7895 66.8633 49.2742 65.9062C47.7589 64.9378 46.5797 63.5649 45.7366 61.7876C44.9049 59.9989 44.4777 57.931 44.4549 55.584V53.7896C44.4549 51.397 44.8708 49.2835 45.7025 47.4492C46.5342 45.6149 47.7077 44.2135 49.223 43.2451C50.7497 42.2653 52.4928 41.7754 54.4525 41.7754C56.4463 41.7754 58.2008 42.2596 59.7161 43.228C61.2428 44.1851 62.4163 45.5807 63.2366 47.415C64.057 49.238 64.4671 51.3628 64.4671 53.7896V55.3618ZM61.203 53.7554C61.203 50.8045 60.6105 48.543 59.4256 46.9707C58.2407 45.387 56.583 44.5952 54.4525 44.5952C52.3789 44.5952 50.744 45.387 49.5477 46.9707C48.3628 48.543 47.7533 50.7305 47.7191 53.5332V55.3618C47.7191 58.2215 48.3172 60.4717 49.5135 62.1123C50.7212 63.7415 52.3789 64.5562 54.4866 64.5562C56.6058 64.5562 58.2464 63.7871 59.4085 62.249C60.5706 60.6995 61.1688 58.4836 61.203 55.6011V53.7554ZM78.5073 56.9341H72.6625V67H69.3642V42.1172H77.6015C80.4042 42.1172 82.5576 42.7552 84.0615 44.0312C85.5768 45.3073 86.3344 47.1644 86.3344 49.6025C86.3344 51.152 85.9129 52.5021 85.0698 53.6528C84.2381 54.8035 83.0759 55.6637 81.5834 56.2334L87.4282 66.7949V67H83.9077L78.5073 56.9341ZM72.6625 54.251H77.704C79.3333 54.251 80.6264 53.8294 81.5834 52.9863C82.5519 52.1432 83.0361 51.0153 83.0361 49.6025C83.0361 48.0645 82.5746 46.8853 81.6518 46.0649C80.7403 45.2446 79.4187 44.8288 77.687 44.8174H72.6625V54.251ZM106.766 44.8174H98.7681V67H95.504V44.8174H87.523V42.1172H106.766V44.8174ZM129.573 67H126.275V55.4985H113.731V67H110.45V42.1172H113.731V52.8154H126.275V42.1172H129.573V67ZM47.7665 98.2588V108H44.4852V83.1172H53.6625C56.3855 83.1172 58.516 83.8122 60.0541 85.2021C61.6036 86.5921 62.3783 88.4321 62.3783 90.7222C62.3783 93.1375 61.6207 95.0003 60.1054 96.3105C58.6015 97.6094 56.4424 98.2588 53.6283 98.2588H47.7665ZM47.7665 95.5757H53.6625C55.417 95.5757 56.7614 95.1655 57.6957 94.3452C58.6299 93.5135 59.0971 92.3172 59.0971 90.7563C59.0971 89.2752 58.6299 88.0903 57.6957 87.2017C56.7614 86.313 55.4797 85.8516 53.8505 85.8174H47.7665V95.5757ZM65.3955 101.318C65.3955 100.122 65.7259 99.0221 66.3867 98.0195C67.0589 97.0169 68.335 95.8491 70.2148 94.5161C69.1097 93.1717 68.3691 92.0894 67.9932 91.269C67.6172 90.4487 67.4292 89.6341 67.4292 88.8252C67.4292 86.9339 67.9875 85.4528 69.104 84.3818C70.2205 83.3109 71.7358 82.7754 73.6499 82.7754C75.3589 82.7754 76.7716 83.2767 77.8882 84.2793C79.0047 85.2705 79.563 86.5238 79.563 88.0391C79.563 89.0417 79.3066 89.9702 78.7939 90.8247C78.2926 91.6678 77.4097 92.5565 76.145 93.4907L74.3164 94.8408L79.8535 101.455C80.6283 99.9735 81.0156 98.3271 81.0156 96.5156H83.8696C83.8696 99.4209 83.1689 101.831 81.7676 103.745L85.3223 108H81.5283L79.8706 106.035C79.0275 106.787 78.0363 107.362 76.897 107.761C75.769 108.148 74.6183 108.342 73.4448 108.342C71.0181 108.342 69.0698 107.698 67.6001 106.411C66.1304 105.123 65.3955 103.426 65.3955 101.318ZM73.4448 105.761C75.1196 105.761 76.652 105.123 78.042 103.847L71.9751 96.584L71.4111 96.9941C69.5085 98.3955 68.5571 99.8368 68.5571 101.318C68.5571 102.662 68.9901 103.739 69.856 104.548C70.7332 105.357 71.9295 105.761 73.4448 105.761ZM70.5908 88.7227C70.5908 89.8164 71.263 91.1836 72.6074 92.8242L74.624 91.4058C75.3988 90.8589 75.9285 90.3405 76.2134 89.8506C76.4982 89.3493 76.6406 88.7454 76.6406 88.0391C76.6406 87.2757 76.3558 86.6434 75.7861 86.1421C75.2165 85.6294 74.4987 85.373 73.6328 85.373C72.6986 85.373 71.958 85.6921 71.4111 86.3301C70.8643 86.9567 70.5908 87.7542 70.5908 88.7227ZM88.3224 108V83.1172H95.3463C97.511 83.1172 99.4251 83.5957 101.088 84.5527C102.752 85.5098 104.034 86.8713 104.934 88.6372C105.845 90.4032 106.307 92.4312 106.318 94.7212V96.3105C106.318 98.6576 105.862 100.714 104.951 102.48C104.051 104.246 102.758 105.602 101.071 106.547C99.3966 107.493 97.4427 107.977 95.2096 108H88.3224ZM91.6036 85.8174V105.317H95.0558C97.5851 105.317 99.5504 104.531 100.952 102.958C102.365 101.386 103.071 99.1475 103.071 96.2422V94.7896C103.071 91.964 102.404 89.7708 101.071 88.21C99.7498 86.6377 97.8699 85.8402 95.4318 85.8174H91.6036Z" fill="black"/>
</svg>
