<svg
  id="visual"
  viewBox="0 15 900 135"
  width="900"
  height="150"
  xmlns="http://www.w3.org/2000/svg"
  xmlns:xlink="http://www.w3.org/1999/xlink"
  version="1.1"
>
  <path
    d="M0 39L16.7 41C33.3 43 66.7 47 100 52C133.3 57 166.7 63 200 65.8C233.3 68.7 266.7 68.3 300 68.2C333.3 68 366.7 68 400 61.2C433.3 54.3 466.7 40.7 500 38.7C533.3 36.7 566.7 46.3 600 52.7C633.3 59 666.7 62 700 56.8C733.3 51.7 766.7 38.3 800 35.8C833.3 33.3 866.7 41.7 883.3 45.8L900 50L900 151L883.3 151C866.7 151 833.3 151 800 151C766.7 151 733.3 151 700 151C666.7 151 633.3 151 600 151C566.7 151 533.3 151 500 151C466.7 151 433.3 151 400 151C366.7 151 333.3 151 300 151C266.7 151 233.3 151 200 151C166.7 151 133.3 151 100 151C66.7 151 33.3 151 16.7 151L0 151Z"
    fill="#302e3a"
  ></path>
  <path
    d="M0 53L16.7 57.7C33.3 62.3 66.7 71.7 100 74.7C133.3 77.7 166.7 74.3 200 71.7C233.3 69 266.7 67 300 63C333.3 59 366.7 53 400 50.5C433.3 48 466.7 49 500 53.3C533.3 57.7 566.7 65.3 600 69C633.3 72.7 666.7 72.3 700 73C733.3 73.7 766.7 75.3 800 75.3C833.3 75.3 866.7 73.7 883.3 72.8L900 72L900 151L883.3 151C866.7 151 833.3 151 800 151C766.7 151 733.3 151 700 151C666.7 151 633.3 151 600 151C566.7 151 533.3 151 500 151C466.7 151 433.3 151 400 151C366.7 151 333.3 151 300 151C266.7 151 233.3 151 200 151C166.7 151 133.3 151 100 151C66.7 151 33.3 151 16.7 151L0 151Z"
    fill="#292731"
  ></path>
  <path
    d="M0 95L16.7 91.8C33.3 88.7 66.7 82.3 100 81.2C133.3 80 166.7 84 200 87.7C233.3 91.3 266.7 94.7 300 97C333.3 99.3 366.7 100.7 400 96.7C433.3 92.7 466.7 83.3 500 81.8C533.3 80.3 566.7 86.7 600 91.7C633.3 96.7 666.7 100.3 700 100.2C733.3 100 766.7 96 800 92.7C833.3 89.3 866.7 86.7 883.3 85.3L900 84L900 151L883.3 151C866.7 151 833.3 151 800 151C766.7 151 733.3 151 700 151C666.7 151 633.3 151 600 151C566.7 151 533.3 151 500 151C466.7 151 433.3 151 400 151C366.7 151 333.3 151 300 151C266.7 151 233.3 151 200 151C166.7 151 133.3 151 100 151C66.7 151 33.3 151 16.7 151L0 151Z"
    fill="#222129"
  ></path>
  <path
    d="M0 119L16.7 115.7C33.3 112.3 66.7 105.7 100 103.7C133.3 101.7 166.7 104.3 200 105.8C233.3 107.3 266.7 107.7 300 106.2C333.3 104.7 366.7 101.3 400 102.2C433.3 103 466.7 108 500 107C533.3 106 566.7 99 600 97C633.3 95 666.7 98 700 102.7C733.3 107.3 766.7 113.7 800 112C833.3 110.3 866.7 100.7 883.3 95.8L900 91L900 151L883.3 151C866.7 151 833.3 151 800 151C766.7 151 733.3 151 700 151C666.7 151 633.3 151 600 151C566.7 151 533.3 151 500 151C466.7 151 433.3 151 400 151C366.7 151 333.3 151 300 151C266.7 151 233.3 151 200 151C166.7 151 133.3 151 100 151C66.7 151 33.3 151 16.7 151L0 151Z"
    fill="#1b1b21"
  ></path>
  <path
    d="M0 117L16.7 117.3C33.3 117.7 66.7 118.3 100 121C133.3 123.7 166.7 128.3 200 127.2C233.3 126 266.7 119 300 116.8C333.3 114.7 366.7 117.3 400 119.7C433.3 122 466.7 124 500 124C533.3 124 566.7 122 600 120.2C633.3 118.3 666.7 116.7 700 116C733.3 115.3 766.7 115.7 800 115.3C833.3 115 866.7 114 883.3 113.5L900 113L900 151L883.3 151C866.7 151 833.3 151 800 151C766.7 151 733.3 151 700 151C666.7 151 633.3 151 600 151C566.7 151 533.3 151 500 151C466.7 151 433.3 151 400 151C366.7 151 333.3 151 300 151C266.7 151 233.3 151 200 151C166.7 151 133.3 151 100 151C66.7 151 33.3 151 16.7 151L0 151Z"
    fill="#151419"
  ></path>
</svg>
